<mxfile host="app.diagrams.net" modified="2023-07-29T01:00:59.567Z" agent="Mozilla/5.0 (Windows NT 10.0; Win64; x64) AppleWebKit/537.36 (KHTML, like Gecko) Chrome/114.0.0.0 Safari/537.36 Edg/114.0.1823.82" etag="48629TegFs7HkVpKuTNQ" version="21.6.5" type="device">
  <diagram id="R2lEEEUBdFMjLlhIrx00" name="Page-1">
    <mxGraphModel dx="996" dy="573" grid="1" gridSize="10" guides="0" tooltips="1" connect="1" arrows="1" fold="1" page="1" pageScale="1" pageWidth="850" pageHeight="1100" math="0" shadow="0" extFonts="Permanent Marker^https://fonts.googleapis.com/css?family=Permanent+Marker">
      <root>
        <mxCell id="0" />
        <mxCell id="1" parent="0" />
        <mxCell id="dTxI5dDR73npywH-p4hO-19" value="" style="edgeStyle=elbowEdgeStyle;fontSize=12;html=1;endArrow=ERmandOne;startArrow=none;rounded=0;exitX=0.75;exitY=0;exitDx=0;exitDy=0;elbow=vertical;entryX=0.5;entryY=1;entryDx=0;entryDy=0;startFill=0;endFill=0;" parent="1" source="n3k5pTCZ1LAgwSPkUt6G-5" target="dTxI5dDR73npywH-p4hO-30" edge="1">
          <mxGeometry width="100" height="100" relative="1" as="geometry">
            <mxPoint x="622.4264068711927" y="171.7157287525381" as="sourcePoint" />
            <mxPoint x="750" y="110" as="targetPoint" />
          </mxGeometry>
        </mxCell>
        <mxCell id="dTxI5dDR73npywH-p4hO-21" value="" style="fontSize=12;html=1;endArrow=ERoneToMany;startArrow=none;rounded=0;exitX=0;exitY=0.5;exitDx=0;exitDy=0;entryX=1;entryY=0.5;entryDx=0;entryDy=0;startFill=0;edgeStyle=orthogonalEdgeStyle;" parent="1" source="n3k5pTCZ1LAgwSPkUt6G-11" target="dTxI5dDR73npywH-p4hO-33" edge="1">
          <mxGeometry width="100" height="100" relative="1" as="geometry">
            <mxPoint x="520" y="200" as="sourcePoint" />
            <mxPoint x="420" y="190" as="targetPoint" />
          </mxGeometry>
        </mxCell>
        <mxCell id="dTxI5dDR73npywH-p4hO-22" value="" style="edgeStyle=elbowEdgeStyle;fontSize=12;html=1;endArrow=ERoneToMany;startArrow=none;rounded=0;exitX=1;exitY=0.5;exitDx=0;exitDy=0;entryX=0;entryY=0.5;entryDx=0;entryDy=0;startFill=0;" parent="1" source="n3k5pTCZ1LAgwSPkUt6G-10" target="dTxI5dDR73npywH-p4hO-33" edge="1">
          <mxGeometry width="100" height="100" relative="1" as="geometry">
            <mxPoint x="260" y="160" as="sourcePoint" />
            <mxPoint x="330" y="160" as="targetPoint" />
          </mxGeometry>
        </mxCell>
        <mxCell id="dTxI5dDR73npywH-p4hO-23" value="" style="edgeStyle=orthogonalEdgeStyle;fontSize=12;html=1;endArrow=ERmandOne;startArrow=none;rounded=0;entryX=0.5;entryY=0;entryDx=0;entryDy=0;exitX=0.5;exitY=1;exitDx=0;exitDy=0;startFill=0;endFill=0;" parent="1" source="n3k5pTCZ1LAgwSPkUt6G-12" target="dTxI5dDR73npywH-p4hO-27" edge="1">
          <mxGeometry width="100" height="100" relative="1" as="geometry">
            <mxPoint x="200" y="200" as="sourcePoint" />
            <mxPoint x="240" y="340" as="targetPoint" />
          </mxGeometry>
        </mxCell>
        <mxCell id="dTxI5dDR73npywH-p4hO-25" value="Order" style="rounded=0;whiteSpace=wrap;html=1;" parent="1" vertex="1">
          <mxGeometry x="120" y="130" width="120" height="60" as="geometry" />
        </mxCell>
        <mxCell id="dTxI5dDR73npywH-p4hO-27" value="Customer" style="rounded=0;whiteSpace=wrap;html=1;" parent="1" vertex="1">
          <mxGeometry x="110" y="360" width="120" height="60" as="geometry" />
        </mxCell>
        <mxCell id="dTxI5dDR73npywH-p4hO-30" value="Wine Cagetory" style="rounded=0;whiteSpace=wrap;html=1;" parent="1" vertex="1">
          <mxGeometry x="520" y="60" width="120" height="60" as="geometry" />
        </mxCell>
        <mxCell id="dTxI5dDR73npywH-p4hO-31" value="Wine" style="rounded=0;whiteSpace=wrap;html=1;" parent="1" vertex="1">
          <mxGeometry x="480" y="260" width="120" height="60" as="geometry" />
        </mxCell>
        <mxCell id="dTxI5dDR73npywH-p4hO-33" value="Order Product" style="shape=ext;margin=3;double=1;whiteSpace=wrap;html=1;align=center;" parent="1" vertex="1">
          <mxGeometry x="340" y="220" width="100" height="40" as="geometry" />
        </mxCell>
        <mxCell id="8G3KxPDngYe6h84Ui3Jd-6" style="rounded=0;orthogonalLoop=1;jettySize=auto;html=1;entryX=1;entryY=0;entryDx=0;entryDy=0;endArrow=none;endFill=0;" parent="1" source="dTxI5dDR73npywH-p4hO-35" target="dTxI5dDR73npywH-p4hO-31" edge="1">
          <mxGeometry relative="1" as="geometry">
            <mxPoint x="610" y="280" as="targetPoint" />
          </mxGeometry>
        </mxCell>
        <mxCell id="dTxI5dDR73npywH-p4hO-35" value="WineName" style="ellipse;whiteSpace=wrap;html=1;align=center;" parent="1" vertex="1">
          <mxGeometry x="750" y="190" width="80" height="30" as="geometry" />
        </mxCell>
        <mxCell id="8G3KxPDngYe6h84Ui3Jd-5" style="rounded=0;orthogonalLoop=1;jettySize=auto;html=1;entryX=1;entryY=0;entryDx=0;entryDy=0;endArrow=none;endFill=0;" parent="1" source="dTxI5dDR73npywH-p4hO-38" target="dTxI5dDR73npywH-p4hO-31" edge="1">
          <mxGeometry relative="1" as="geometry" />
        </mxCell>
        <mxCell id="dTxI5dDR73npywH-p4hO-38" value="WineID(PK)" style="ellipse;whiteSpace=wrap;html=1;align=center;fontStyle=4;" parent="1" vertex="1">
          <mxGeometry x="660" y="180" width="80" height="30" as="geometry" />
        </mxCell>
        <mxCell id="8G3KxPDngYe6h84Ui3Jd-9" style="rounded=0;orthogonalLoop=1;jettySize=auto;html=1;entryX=1;entryY=0.5;entryDx=0;entryDy=0;endArrow=none;endFill=0;" parent="1" source="VobUMtlbzpRoxm0NPVZj-3" target="dTxI5dDR73npywH-p4hO-31" edge="1">
          <mxGeometry relative="1" as="geometry">
            <mxPoint x="550" y="370" as="targetPoint" />
          </mxGeometry>
        </mxCell>
        <mxCell id="VobUMtlbzpRoxm0NPVZj-3" value="Price" style="ellipse;whiteSpace=wrap;html=1;align=center;" parent="1" vertex="1">
          <mxGeometry x="720" y="270" width="60" height="25" as="geometry" />
        </mxCell>
        <mxCell id="8G3KxPDngYe6h84Ui3Jd-26" style="rounded=0;orthogonalLoop=1;jettySize=auto;html=1;entryX=0.846;entryY=-0.033;entryDx=0;entryDy=0;entryPerimeter=0;endArrow=none;endFill=0;" parent="1" source="VobUMtlbzpRoxm0NPVZj-5" target="dTxI5dDR73npywH-p4hO-33" edge="1">
          <mxGeometry relative="1" as="geometry" />
        </mxCell>
        <mxCell id="VobUMtlbzpRoxm0NPVZj-5" value="ItemQty" style="ellipse;whiteSpace=wrap;html=1;align=center;" parent="1" vertex="1">
          <mxGeometry x="400" y="90" width="80" height="25" as="geometry" />
        </mxCell>
        <mxCell id="VobUMtlbzpRoxm0NPVZj-6" value="Branch" style="ellipse;whiteSpace=wrap;html=1;align=center;" parent="1" vertex="1">
          <mxGeometry x="710" y="230" width="90" height="30" as="geometry" />
        </mxCell>
        <mxCell id="8G3KxPDngYe6h84Ui3Jd-25" style="rounded=0;orthogonalLoop=1;jettySize=auto;html=1;entryX=0.25;entryY=0;entryDx=0;entryDy=0;endArrow=none;endFill=0;" parent="1" source="VobUMtlbzpRoxm0NPVZj-7" target="dTxI5dDR73npywH-p4hO-33" edge="1">
          <mxGeometry relative="1" as="geometry" />
        </mxCell>
        <mxCell id="VobUMtlbzpRoxm0NPVZj-7" value="ItemPrice" style="ellipse;whiteSpace=wrap;html=1;align=center;" parent="1" vertex="1">
          <mxGeometry x="360" y="60" width="70" height="20" as="geometry" />
        </mxCell>
        <mxCell id="8G3KxPDngYe6h84Ui3Jd-11" style="rounded=0;orthogonalLoop=1;jettySize=auto;html=1;entryX=1;entryY=1;entryDx=0;entryDy=0;endArrow=none;endFill=0;" parent="1" source="VobUMtlbzpRoxm0NPVZj-8" target="dTxI5dDR73npywH-p4hO-31" edge="1">
          <mxGeometry relative="1" as="geometry">
            <mxPoint x="550" y="390" as="targetPoint" />
          </mxGeometry>
        </mxCell>
        <mxCell id="VobUMtlbzpRoxm0NPVZj-8" value="Description" style="ellipse;whiteSpace=wrap;html=1;align=center;" parent="1" vertex="1">
          <mxGeometry x="680" y="390" width="80" height="30" as="geometry" />
        </mxCell>
        <mxCell id="8G3KxPDngYe6h84Ui3Jd-20" style="rounded=0;orthogonalLoop=1;jettySize=auto;html=1;entryX=0.417;entryY=1.009;entryDx=0;entryDy=0;entryPerimeter=0;endArrow=none;endFill=0;" parent="1" source="VobUMtlbzpRoxm0NPVZj-9" target="dTxI5dDR73npywH-p4hO-27" edge="1">
          <mxGeometry relative="1" as="geometry" />
        </mxCell>
        <mxCell id="VobUMtlbzpRoxm0NPVZj-9" value="Address" style="ellipse;whiteSpace=wrap;html=1;align=center;" parent="1" vertex="1">
          <mxGeometry x="30" y="510" width="100" height="55" as="geometry" />
        </mxCell>
        <mxCell id="8G3KxPDngYe6h84Ui3Jd-15" style="rounded=0;orthogonalLoop=1;jettySize=auto;html=1;entryX=0.5;entryY=1;entryDx=0;entryDy=0;endArrow=none;endFill=0;" parent="1" source="VobUMtlbzpRoxm0NPVZj-11" target="dTxI5dDR73npywH-p4hO-31" edge="1">
          <mxGeometry relative="1" as="geometry">
            <mxPoint x="400" y="370" as="targetPoint" />
          </mxGeometry>
        </mxCell>
        <mxCell id="VobUMtlbzpRoxm0NPVZj-11" value="status" style="ellipse;whiteSpace=wrap;html=1;align=center;" parent="1" vertex="1">
          <mxGeometry x="460" y="440" width="90" height="30" as="geometry" />
        </mxCell>
        <mxCell id="8G3KxPDngYe6h84Ui3Jd-23" style="rounded=0;orthogonalLoop=1;jettySize=auto;html=1;entryX=0.827;entryY=-0.023;entryDx=0;entryDy=0;endArrow=none;endFill=0;entryPerimeter=0;" parent="1" source="VobUMtlbzpRoxm0NPVZj-13" target="dTxI5dDR73npywH-p4hO-25" edge="1">
          <mxGeometry relative="1" as="geometry" />
        </mxCell>
        <mxCell id="VobUMtlbzpRoxm0NPVZj-13" value="OrderDay" style="ellipse;whiteSpace=wrap;html=1;align=center;" parent="1" vertex="1">
          <mxGeometry x="260" y="40" width="80" height="30" as="geometry" />
        </mxCell>
        <mxCell id="8G3KxPDngYe6h84Ui3Jd-24" style="rounded=0;orthogonalLoop=1;jettySize=auto;html=1;entryX=1;entryY=0;entryDx=0;entryDy=0;endArrow=none;endFill=0;" parent="1" source="VobUMtlbzpRoxm0NPVZj-15" target="dTxI5dDR73npywH-p4hO-25" edge="1">
          <mxGeometry relative="1" as="geometry" />
        </mxCell>
        <mxCell id="VobUMtlbzpRoxm0NPVZj-15" value="OrderID(PK)" style="ellipse;whiteSpace=wrap;html=1;align=center;fontStyle=4;" parent="1" vertex="1">
          <mxGeometry x="290" y="100" width="80" height="30" as="geometry" />
        </mxCell>
        <mxCell id="8G3KxPDngYe6h84Ui3Jd-17" style="rounded=0;orthogonalLoop=1;jettySize=auto;html=1;entryX=0.67;entryY=1.009;entryDx=0;entryDy=0;entryPerimeter=0;endArrow=none;endFill=0;" parent="1" source="VobUMtlbzpRoxm0NPVZj-16" target="dTxI5dDR73npywH-p4hO-27" edge="1">
          <mxGeometry relative="1" as="geometry">
            <mxPoint x="150" y="480" as="targetPoint" />
          </mxGeometry>
        </mxCell>
        <mxCell id="VobUMtlbzpRoxm0NPVZj-16" value="FullName" style="ellipse;whiteSpace=wrap;html=1;align=center;" parent="1" vertex="1">
          <mxGeometry x="140" y="480" width="90" height="50" as="geometry" />
        </mxCell>
        <mxCell id="8G3KxPDngYe6h84Ui3Jd-18" style="rounded=0;orthogonalLoop=1;jettySize=auto;html=1;endArrow=none;endFill=0;" parent="1" source="VobUMtlbzpRoxm0NPVZj-17" target="dTxI5dDR73npywH-p4hO-27" edge="1">
          <mxGeometry relative="1" as="geometry">
            <mxPoint x="150" y="350" as="targetPoint" />
          </mxGeometry>
        </mxCell>
        <mxCell id="VobUMtlbzpRoxm0NPVZj-17" value="Tel" style="ellipse;whiteSpace=wrap;html=1;align=center;" parent="1" vertex="1">
          <mxGeometry x="10" y="387.5" width="80" height="25" as="geometry" />
        </mxCell>
        <mxCell id="8G3KxPDngYe6h84Ui3Jd-19" style="rounded=0;orthogonalLoop=1;jettySize=auto;html=1;entryX=0.193;entryY=-0.037;entryDx=0;entryDy=0;entryPerimeter=0;elbow=vertical;endArrow=none;endFill=0;" parent="1" source="VobUMtlbzpRoxm0NPVZj-18" target="dTxI5dDR73npywH-p4hO-27" edge="1">
          <mxGeometry relative="1" as="geometry" />
        </mxCell>
        <mxCell id="VobUMtlbzpRoxm0NPVZj-18" value="CustomerID(PK)" style="ellipse;whiteSpace=wrap;html=1;align=center;fontStyle=4;" parent="1" vertex="1">
          <mxGeometry x="20" y="330" width="100" height="30" as="geometry" />
        </mxCell>
        <mxCell id="8G3KxPDngYe6h84Ui3Jd-21" style="rounded=0;orthogonalLoop=1;jettySize=auto;html=1;entryX=0;entryY=0.39;entryDx=0;entryDy=0;entryPerimeter=0;endArrow=none;endFill=0;" parent="1" source="VobUMtlbzpRoxm0NPVZj-19" target="dTxI5dDR73npywH-p4hO-27" edge="1">
          <mxGeometry relative="1" as="geometry" />
        </mxCell>
        <mxCell id="VobUMtlbzpRoxm0NPVZj-19" value="Email" style="ellipse;whiteSpace=wrap;html=1;align=center;" parent="1" vertex="1">
          <mxGeometry x="20" y="450" width="90" height="30" as="geometry" />
        </mxCell>
        <mxCell id="8G3KxPDngYe6h84Ui3Jd-13" style="rounded=0;orthogonalLoop=1;jettySize=auto;html=1;entryX=1;entryY=0.75;entryDx=0;entryDy=0;endArrow=none;endFill=0;" parent="1" source="8G3KxPDngYe6h84Ui3Jd-1" target="dTxI5dDR73npywH-p4hO-30" edge="1">
          <mxGeometry relative="1" as="geometry" />
        </mxCell>
        <mxCell id="8G3KxPDngYe6h84Ui3Jd-1" value="Cagetory name" style="ellipse;whiteSpace=wrap;html=1;align=center;" parent="1" vertex="1">
          <mxGeometry x="710" y="80" width="100" height="30" as="geometry" />
        </mxCell>
        <mxCell id="8G3KxPDngYe6h84Ui3Jd-12" style="rounded=0;orthogonalLoop=1;jettySize=auto;html=1;entryX=1;entryY=0;entryDx=0;entryDy=0;endArrow=none;endFill=0;" parent="1" source="8G3KxPDngYe6h84Ui3Jd-4" target="dTxI5dDR73npywH-p4hO-30" edge="1">
          <mxGeometry relative="1" as="geometry" />
        </mxCell>
        <mxCell id="8G3KxPDngYe6h84Ui3Jd-4" value="Wine&lt;br style=&quot;border-color: var(--border-color);&quot;&gt;CagetoyID(PK)" style="ellipse;whiteSpace=wrap;html=1;align=center;fontStyle=4;" parent="1" vertex="1">
          <mxGeometry x="610" y="10" width="100" height="40" as="geometry" />
        </mxCell>
        <mxCell id="rmuJf8ZQ7ZaGDNXfYBwP-2" style="rounded=0;orthogonalLoop=1;jettySize=auto;html=1;entryX=1;entryY=1;entryDx=0;entryDy=0;endArrow=none;endFill=0;" parent="1" source="rmuJf8ZQ7ZaGDNXfYBwP-1" target="dTxI5dDR73npywH-p4hO-31" edge="1">
          <mxGeometry relative="1" as="geometry">
            <mxPoint x="550" y="400" as="targetPoint" />
          </mxGeometry>
        </mxCell>
        <mxCell id="rmuJf8ZQ7ZaGDNXfYBwP-1" value="Capacity" style="ellipse;whiteSpace=wrap;html=1;align=center;" parent="1" vertex="1">
          <mxGeometry x="620" y="420" width="80" height="30" as="geometry" />
        </mxCell>
        <mxCell id="rmuJf8ZQ7ZaGDNXfYBwP-5" style="edgeStyle=orthogonalEdgeStyle;rounded=0;orthogonalLoop=1;jettySize=auto;html=1;exitX=0.5;exitY=1;exitDx=0;exitDy=0;" parent="1" edge="1">
          <mxGeometry relative="1" as="geometry">
            <mxPoint x="460" y="300" as="sourcePoint" />
            <mxPoint x="460" y="300" as="targetPoint" />
          </mxGeometry>
        </mxCell>
        <mxCell id="Azhsq3GnwWCv2wDgY1An-1" style="edgeStyle=orthogonalEdgeStyle;rounded=0;orthogonalLoop=1;jettySize=auto;html=1;exitX=0.5;exitY=1;exitDx=0;exitDy=0;" parent="1" edge="1">
          <mxGeometry relative="1" as="geometry">
            <mxPoint x="350" y="397.5" as="sourcePoint" />
            <mxPoint x="350" y="397.5" as="targetPoint" />
          </mxGeometry>
        </mxCell>
        <mxCell id="Azhsq3GnwWCv2wDgY1An-3" style="rounded=0;orthogonalLoop=1;jettySize=auto;html=1;endArrow=none;endFill=0;exitX=0.5;exitY=0;exitDx=0;exitDy=0;entryX=0.75;entryY=1;entryDx=0;entryDy=0;" parent="1" source="Azhsq3GnwWCv2wDgY1An-2" edge="1" target="dTxI5dDR73npywH-p4hO-31">
          <mxGeometry relative="1" as="geometry">
            <mxPoint x="604.5346366677636" y="349.02051890242" as="sourcePoint" />
            <mxPoint x="600" y="300" as="targetPoint" />
          </mxGeometry>
        </mxCell>
        <mxCell id="Azhsq3GnwWCv2wDgY1An-2" value="Alcohol&lt;br&gt;Concentration" style="ellipse;whiteSpace=wrap;html=1;align=center;" parent="1" vertex="1">
          <mxGeometry x="540" y="390" width="80" height="40" as="geometry" />
        </mxCell>
        <mxCell id="Azhsq3GnwWCv2wDgY1An-16" style="rounded=0;orthogonalLoop=1;jettySize=auto;html=1;endArrow=none;endFill=0;entryX=1;entryY=0.25;entryDx=0;entryDy=0;exitX=0;exitY=0.5;exitDx=0;exitDy=0;" parent="1" source="VobUMtlbzpRoxm0NPVZj-6" target="dTxI5dDR73npywH-p4hO-31" edge="1">
          <mxGeometry relative="1" as="geometry">
            <mxPoint x="735" y="400" as="sourcePoint" />
            <mxPoint x="650" y="240" as="targetPoint" />
          </mxGeometry>
        </mxCell>
        <mxCell id="Azhsq3GnwWCv2wDgY1An-24" style="rounded=0;orthogonalLoop=1;jettySize=auto;html=1;entryX=0.75;entryY=1;entryDx=0;entryDy=0;endArrow=none;endFill=0;" parent="1" source="Azhsq3GnwWCv2wDgY1An-23" target="dTxI5dDR73npywH-p4hO-25" edge="1">
          <mxGeometry relative="1" as="geometry" />
        </mxCell>
        <mxCell id="Azhsq3GnwWCv2wDgY1An-23" value="Note" style="ellipse;whiteSpace=wrap;html=1;align=center;" parent="1" vertex="1">
          <mxGeometry x="160" y="270" width="60" height="30" as="geometry" />
        </mxCell>
        <mxCell id="Azhsq3GnwWCv2wDgY1An-25" style="edgeStyle=orthogonalEdgeStyle;rounded=0;orthogonalLoop=1;jettySize=auto;html=1;exitX=0.5;exitY=1;exitDx=0;exitDy=0;" parent="1" source="VobUMtlbzpRoxm0NPVZj-3" target="VobUMtlbzpRoxm0NPVZj-3" edge="1">
          <mxGeometry relative="1" as="geometry" />
        </mxCell>
        <mxCell id="Azhsq3GnwWCv2wDgY1An-27" style="rounded=0;orthogonalLoop=1;jettySize=auto;html=1;entryX=0.89;entryY=1.003;entryDx=0;entryDy=0;entryPerimeter=0;endArrow=none;endFill=0;" parent="1" source="Azhsq3GnwWCv2wDgY1An-26" target="dTxI5dDR73npywH-p4hO-31" edge="1">
          <mxGeometry relative="1" as="geometry" />
        </mxCell>
        <mxCell id="Azhsq3GnwWCv2wDgY1An-26" value="Image" style="ellipse;whiteSpace=wrap;html=1;align=center;" parent="1" vertex="1">
          <mxGeometry x="720" y="300" width="60" height="30" as="geometry" />
        </mxCell>
        <mxCell id="Azhsq3GnwWCv2wDgY1An-30" style="edgeStyle=orthogonalEdgeStyle;rounded=0;orthogonalLoop=1;jettySize=auto;html=1;exitX=0.5;exitY=1;exitDx=0;exitDy=0;" parent="1" source="Azhsq3GnwWCv2wDgY1An-26" target="Azhsq3GnwWCv2wDgY1An-26" edge="1">
          <mxGeometry relative="1" as="geometry" />
        </mxCell>
        <mxCell id="Azhsq3GnwWCv2wDgY1An-37" value="User" style="whiteSpace=wrap;html=1;align=center;" parent="1" vertex="1">
          <mxGeometry x="100" y="620" width="100" height="40" as="geometry" />
        </mxCell>
        <mxCell id="Azhsq3GnwWCv2wDgY1An-38" value="News" style="whiteSpace=wrap;html=1;align=center;" parent="1" vertex="1">
          <mxGeometry x="500" y="520" width="100" height="40" as="geometry" />
        </mxCell>
        <mxCell id="Azhsq3GnwWCv2wDgY1An-42" style="rounded=0;orthogonalLoop=1;jettySize=auto;html=1;entryX=0;entryY=0.25;entryDx=0;entryDy=0;endArrow=none;endFill=0;" parent="1" source="Azhsq3GnwWCv2wDgY1An-39" target="Azhsq3GnwWCv2wDgY1An-37" edge="1">
          <mxGeometry relative="1" as="geometry" />
        </mxCell>
        <mxCell id="Azhsq3GnwWCv2wDgY1An-39" value="username" style="ellipse;whiteSpace=wrap;html=1;align=center;" parent="1" vertex="1">
          <mxGeometry x="20" y="580" width="100" height="40" as="geometry" />
        </mxCell>
        <mxCell id="Azhsq3GnwWCv2wDgY1An-43" style="rounded=0;orthogonalLoop=1;jettySize=auto;html=1;entryX=0.436;entryY=1.055;entryDx=0;entryDy=0;entryPerimeter=0;endArrow=none;endFill=0;" parent="1" source="Azhsq3GnwWCv2wDgY1An-40" target="Azhsq3GnwWCv2wDgY1An-37" edge="1">
          <mxGeometry relative="1" as="geometry" />
        </mxCell>
        <mxCell id="Azhsq3GnwWCv2wDgY1An-40" value="UserID(PK)" style="ellipse;whiteSpace=wrap;html=1;align=center;fontStyle=4;" parent="1" vertex="1">
          <mxGeometry x="60" y="700" width="100" height="40" as="geometry" />
        </mxCell>
        <mxCell id="Azhsq3GnwWCv2wDgY1An-44" style="rounded=0;orthogonalLoop=1;jettySize=auto;html=1;entryX=1;entryY=0.5;entryDx=0;entryDy=0;endArrow=none;endFill=0;" parent="1" source="Azhsq3GnwWCv2wDgY1An-41" target="Azhsq3GnwWCv2wDgY1An-37" edge="1">
          <mxGeometry relative="1" as="geometry" />
        </mxCell>
        <mxCell id="Azhsq3GnwWCv2wDgY1An-41" value="password" style="ellipse;whiteSpace=wrap;html=1;align=center;" parent="1" vertex="1">
          <mxGeometry x="200" y="680" width="100" height="40" as="geometry" />
        </mxCell>
        <mxCell id="Azhsq3GnwWCv2wDgY1An-47" style="rounded=0;orthogonalLoop=1;jettySize=auto;html=1;entryX=1;entryY=0.5;entryDx=0;entryDy=0;endArrow=none;endFill=0;" parent="1" source="Azhsq3GnwWCv2wDgY1An-45" target="Azhsq3GnwWCv2wDgY1An-38" edge="1">
          <mxGeometry relative="1" as="geometry" />
        </mxCell>
        <mxCell id="Azhsq3GnwWCv2wDgY1An-45" value="Header" style="ellipse;whiteSpace=wrap;html=1;align=center;" parent="1" vertex="1">
          <mxGeometry x="620" y="500" width="100" height="40" as="geometry" />
        </mxCell>
        <mxCell id="Azhsq3GnwWCv2wDgY1An-49" style="rounded=0;orthogonalLoop=1;jettySize=auto;html=1;entryX=1;entryY=1;entryDx=0;entryDy=0;endArrow=none;endFill=0;" parent="1" source="Azhsq3GnwWCv2wDgY1An-46" target="Azhsq3GnwWCv2wDgY1An-38" edge="1">
          <mxGeometry relative="1" as="geometry" />
        </mxCell>
        <mxCell id="Azhsq3GnwWCv2wDgY1An-46" value="Summary" style="ellipse;whiteSpace=wrap;html=1;align=center;" parent="1" vertex="1">
          <mxGeometry x="620" y="560" width="95" height="40" as="geometry" />
        </mxCell>
        <mxCell id="Azhsq3GnwWCv2wDgY1An-50" style="rounded=0;orthogonalLoop=1;jettySize=auto;html=1;entryX=0.5;entryY=1;entryDx=0;entryDy=0;endArrow=none;endFill=0;" parent="1" source="Azhsq3GnwWCv2wDgY1An-48" target="Azhsq3GnwWCv2wDgY1An-38" edge="1">
          <mxGeometry relative="1" as="geometry" />
        </mxCell>
        <mxCell id="Azhsq3GnwWCv2wDgY1An-48" value="Image" style="ellipse;whiteSpace=wrap;html=1;align=center;" parent="1" vertex="1">
          <mxGeometry x="490" y="600" width="100" height="30" as="geometry" />
        </mxCell>
        <mxCell id="n3k5pTCZ1LAgwSPkUt6G-16" style="rounded=0;orthogonalLoop=1;jettySize=auto;html=1;entryX=1;entryY=0.25;entryDx=0;entryDy=0;endArrow=none;endFill=0;" parent="1" source="n3k5pTCZ1LAgwSPkUt6G-15" target="Azhsq3GnwWCv2wDgY1An-37" edge="1">
          <mxGeometry relative="1" as="geometry" />
        </mxCell>
        <mxCell id="n3k5pTCZ1LAgwSPkUt6G-15" value="Role" style="ellipse;whiteSpace=wrap;html=1;align=center;" parent="1" vertex="1">
          <mxGeometry x="250" y="600" width="70" height="27.5" as="geometry" />
        </mxCell>
        <mxCell id="n3k5pTCZ1LAgwSPkUt6G-24" style="rounded=0;orthogonalLoop=1;jettySize=auto;html=1;entryX=0.75;entryY=1;entryDx=0;entryDy=0;endArrow=none;endFill=0;" parent="1" source="n3k5pTCZ1LAgwSPkUt6G-23" target="dTxI5dDR73npywH-p4hO-27" edge="1">
          <mxGeometry relative="1" as="geometry" />
        </mxCell>
        <mxCell id="n3k5pTCZ1LAgwSPkUt6G-23" value="password" style="ellipse;whiteSpace=wrap;html=1;align=center;" parent="1" vertex="1">
          <mxGeometry x="250" y="470" width="70" height="45" as="geometry" />
        </mxCell>
        <mxCell id="n3k5pTCZ1LAgwSPkUt6G-26" style="rounded=0;orthogonalLoop=1;jettySize=auto;html=1;entryX=1;entryY=0.75;entryDx=0;entryDy=0;endArrow=none;endFill=0;" parent="1" source="n3k5pTCZ1LAgwSPkUt6G-25" target="dTxI5dDR73npywH-p4hO-27" edge="1">
          <mxGeometry relative="1" as="geometry" />
        </mxCell>
        <mxCell id="n3k5pTCZ1LAgwSPkUt6G-25" value="Username" style="ellipse;whiteSpace=wrap;html=1;align=center;" parent="1" vertex="1">
          <mxGeometry x="280" y="417.5" width="100" height="40" as="geometry" />
        </mxCell>
        <mxCell id="n3k5pTCZ1LAgwSPkUt6G-29" style="rounded=0;orthogonalLoop=1;jettySize=auto;html=1;entryX=0.19;entryY=-0.023;entryDx=0;entryDy=0;endArrow=none;endFill=0;entryPerimeter=0;" parent="1" source="n3k5pTCZ1LAgwSPkUt6G-28" target="dTxI5dDR73npywH-p4hO-25" edge="1">
          <mxGeometry relative="1" as="geometry" />
        </mxCell>
        <mxCell id="n3k5pTCZ1LAgwSPkUt6G-28" value="Giver tel" style="ellipse;whiteSpace=wrap;html=1;align=center;" parent="1" vertex="1">
          <mxGeometry x="10" y="50" width="105" height="46.25" as="geometry" />
        </mxCell>
        <mxCell id="n3k5pTCZ1LAgwSPkUt6G-35" style="rounded=0;orthogonalLoop=1;jettySize=auto;html=1;entryX=0.5;entryY=0;entryDx=0;entryDy=0;endArrow=none;endFill=0;" parent="1" source="n3k5pTCZ1LAgwSPkUt6G-32" target="dTxI5dDR73npywH-p4hO-25" edge="1">
          <mxGeometry relative="1" as="geometry" />
        </mxCell>
        <mxCell id="n3k5pTCZ1LAgwSPkUt6G-32" value="Giver Name" style="ellipse;whiteSpace=wrap;html=1;align=center;" parent="1" vertex="1">
          <mxGeometry x="70" y="10" width="100" height="40" as="geometry" />
        </mxCell>
        <mxCell id="n3k5pTCZ1LAgwSPkUt6G-37" style="rounded=0;orthogonalLoop=1;jettySize=auto;html=1;entryX=0;entryY=0.5;entryDx=0;entryDy=0;endArrow=none;endFill=0;" parent="1" source="n3k5pTCZ1LAgwSPkUt6G-36" target="dTxI5dDR73npywH-p4hO-25" edge="1">
          <mxGeometry relative="1" as="geometry" />
        </mxCell>
        <mxCell id="n3k5pTCZ1LAgwSPkUt6G-36" value="receiver tel" style="ellipse;whiteSpace=wrap;html=1;align=center;" parent="1" vertex="1">
          <mxGeometry y="160" width="100" height="40" as="geometry" />
        </mxCell>
        <mxCell id="n3k5pTCZ1LAgwSPkUt6G-39" style="rounded=0;orthogonalLoop=1;jettySize=auto;html=1;entryX=0;entryY=0.25;entryDx=0;entryDy=0;endArrow=none;endFill=0;" parent="1" source="n3k5pTCZ1LAgwSPkUt6G-38" target="dTxI5dDR73npywH-p4hO-25" edge="1">
          <mxGeometry relative="1" as="geometry" />
        </mxCell>
        <mxCell id="n3k5pTCZ1LAgwSPkUt6G-38" value="Receiver Name" style="ellipse;whiteSpace=wrap;html=1;align=center;" parent="1" vertex="1">
          <mxGeometry x="10" y="110" width="100" height="40" as="geometry" />
        </mxCell>
        <mxCell id="n3k5pTCZ1LAgwSPkUt6G-41" style="rounded=0;orthogonalLoop=1;jettySize=auto;html=1;endArrow=none;endFill=0;" parent="1" source="n3k5pTCZ1LAgwSPkUt6G-40" target="dTxI5dDR73npywH-p4hO-25" edge="1">
          <mxGeometry relative="1" as="geometry" />
        </mxCell>
        <mxCell id="n3k5pTCZ1LAgwSPkUt6G-40" value="Address" style="ellipse;whiteSpace=wrap;html=1;align=center;" parent="1" vertex="1">
          <mxGeometry x="10" y="230" width="112.5" height="50" as="geometry" />
        </mxCell>
        <mxCell id="n3k5pTCZ1LAgwSPkUt6G-42" value="" style="edgeStyle=orthogonalEdgeStyle;fontSize=12;html=1;endArrow=none;startArrow=ERoneToMany;rounded=0;entryX=0.5;entryY=0;entryDx=0;entryDy=0;exitX=0.5;exitY=1;exitDx=0;exitDy=0;endFill=0;startFill=0;" parent="1" source="dTxI5dDR73npywH-p4hO-25" target="n3k5pTCZ1LAgwSPkUt6G-12" edge="1">
          <mxGeometry width="100" height="100" relative="1" as="geometry">
            <mxPoint x="160" y="200" as="sourcePoint" />
            <mxPoint x="153" y="370" as="targetPoint" />
          </mxGeometry>
        </mxCell>
        <mxCell id="n3k5pTCZ1LAgwSPkUt6G-12" value="have" style="rhombus;whiteSpace=wrap;html=1;" parent="1" vertex="1">
          <mxGeometry x="110" y="280" width="45" height="30" as="geometry" />
        </mxCell>
        <mxCell id="n3k5pTCZ1LAgwSPkUt6G-43" value="" style="edgeStyle=elbowEdgeStyle;fontSize=12;html=1;endArrow=none;startArrow=ERmandOne;rounded=0;exitX=1;exitY=0.5;exitDx=0;exitDy=0;entryX=0;entryY=0.5;entryDx=0;entryDy=0;endFill=0;" parent="1" source="dTxI5dDR73npywH-p4hO-25" target="n3k5pTCZ1LAgwSPkUt6G-10" edge="1">
          <mxGeometry width="100" height="100" relative="1" as="geometry">
            <mxPoint x="220" y="170" as="sourcePoint" />
            <mxPoint x="365" y="110" as="targetPoint" />
          </mxGeometry>
        </mxCell>
        <mxCell id="n3k5pTCZ1LAgwSPkUt6G-10" value="Contain" style="rhombus;whiteSpace=wrap;html=1;" parent="1" vertex="1">
          <mxGeometry x="270" y="150" width="60" height="50" as="geometry" />
        </mxCell>
        <mxCell id="n3k5pTCZ1LAgwSPkUt6G-44" style="edgeStyle=none;rounded=0;orthogonalLoop=1;jettySize=auto;html=1;exitX=1;exitY=1;exitDx=0;exitDy=0;" parent="1" source="n3k5pTCZ1LAgwSPkUt6G-12" target="n3k5pTCZ1LAgwSPkUt6G-12" edge="1">
          <mxGeometry relative="1" as="geometry" />
        </mxCell>
        <mxCell id="n3k5pTCZ1LAgwSPkUt6G-47" value="" style="fontSize=12;html=1;endArrow=none;startArrow=ERmandOne;rounded=0;exitX=0;exitY=0.5;exitDx=0;exitDy=0;entryX=1;entryY=0.5;entryDx=0;entryDy=0;endFill=0;elbow=vertical;edgeStyle=orthogonalEdgeStyle;" parent="1" source="dTxI5dDR73npywH-p4hO-31" target="n3k5pTCZ1LAgwSPkUt6G-11" edge="1">
          <mxGeometry width="100" height="100" relative="1" as="geometry">
            <mxPoint x="550" y="180" as="sourcePoint" />
            <mxPoint x="465" y="110" as="targetPoint" />
          </mxGeometry>
        </mxCell>
        <mxCell id="n3k5pTCZ1LAgwSPkUt6G-11" value="have" style="rhombus;whiteSpace=wrap;html=1;" parent="1" vertex="1">
          <mxGeometry x="470" y="170" width="45" height="30" as="geometry" />
        </mxCell>
        <mxCell id="n3k5pTCZ1LAgwSPkUt6G-49" value="" style="edgeStyle=elbowEdgeStyle;fontSize=12;html=1;endArrow=none;startArrow=ERoneToMany;rounded=0;exitX=0.75;exitY=0;exitDx=0;exitDy=0;entryX=0.5;entryY=1;entryDx=0;entryDy=0;endFill=0;startFill=0;elbow=vertical;" parent="1" source="dTxI5dDR73npywH-p4hO-31" target="n3k5pTCZ1LAgwSPkUt6G-5" edge="1">
          <mxGeometry width="100" height="100" relative="1" as="geometry">
            <mxPoint x="640" y="150" as="sourcePoint" />
            <mxPoint x="590" y="90" as="targetPoint" />
          </mxGeometry>
        </mxCell>
        <mxCell id="n3k5pTCZ1LAgwSPkUt6G-5" value="Contain" style="rhombus;whiteSpace=wrap;html=1;" parent="1" vertex="1">
          <mxGeometry x="560" y="160" width="50" height="37.5" as="geometry" />
        </mxCell>
        <mxCell id="JCfqLwOLU5Aq-_uj0Y8P-2" style="rounded=0;orthogonalLoop=1;jettySize=auto;html=1;entryX=0.643;entryY=0.043;entryDx=0;entryDy=0;entryPerimeter=0;endArrow=none;endFill=0;" edge="1" parent="1" source="JCfqLwOLU5Aq-_uj0Y8P-1" target="dTxI5dDR73npywH-p4hO-25">
          <mxGeometry relative="1" as="geometry" />
        </mxCell>
        <mxCell id="JCfqLwOLU5Aq-_uj0Y8P-1" value="ReceiveDay" style="ellipse;whiteSpace=wrap;html=1;align=center;" vertex="1" parent="1">
          <mxGeometry x="190" y="10" width="80" height="30" as="geometry" />
        </mxCell>
        <mxCell id="JCfqLwOLU5Aq-_uj0Y8P-4" value="Status" style="ellipse;whiteSpace=wrap;html=1;align=center;" vertex="1" parent="1">
          <mxGeometry x="230" y="300" width="60" height="30" as="geometry" />
        </mxCell>
        <mxCell id="JCfqLwOLU5Aq-_uj0Y8P-5" style="rounded=0;orthogonalLoop=1;jettySize=auto;html=1;entryX=0.933;entryY=1.037;entryDx=0;entryDy=0;endArrow=none;endFill=0;entryPerimeter=0;exitX=0.5;exitY=0;exitDx=0;exitDy=0;" edge="1" parent="1" source="JCfqLwOLU5Aq-_uj0Y8P-4" target="dTxI5dDR73npywH-p4hO-25">
          <mxGeometry relative="1" as="geometry">
            <mxPoint x="30" y="294" as="sourcePoint" />
            <mxPoint x="121" y="240" as="targetPoint" />
          </mxGeometry>
        </mxCell>
        <mxCell id="JCfqLwOLU5Aq-_uj0Y8P-8" value="Status" style="ellipse;whiteSpace=wrap;html=1;align=center;" vertex="1" parent="1">
          <mxGeometry x="310" y="380" width="60" height="30" as="geometry" />
        </mxCell>
        <mxCell id="JCfqLwOLU5Aq-_uj0Y8P-9" style="rounded=0;orthogonalLoop=1;jettySize=auto;html=1;endArrow=none;endFill=0;exitX=0;exitY=0.333;exitDx=0;exitDy=0;entryX=1;entryY=0;entryDx=0;entryDy=0;exitPerimeter=0;" edge="1" parent="1" source="JCfqLwOLU5Aq-_uj0Y8P-8" target="dTxI5dDR73npywH-p4hO-27">
          <mxGeometry relative="1" as="geometry">
            <mxPoint x="217.5" y="314" as="sourcePoint" />
            <mxPoint x="290" y="290" as="targetPoint" />
          </mxGeometry>
        </mxCell>
        <mxCell id="JCfqLwOLU5Aq-_uj0Y8P-11" style="rounded=0;orthogonalLoop=1;jettySize=auto;html=1;entryX=0.594;entryY=1.015;entryDx=0;entryDy=0;entryPerimeter=0;endArrow=none;endFill=0;" edge="1" parent="1" source="JCfqLwOLU5Aq-_uj0Y8P-10" target="dTxI5dDR73npywH-p4hO-33">
          <mxGeometry relative="1" as="geometry" />
        </mxCell>
        <mxCell id="JCfqLwOLU5Aq-_uj0Y8P-10" value="ID(PK)" style="ellipse;whiteSpace=wrap;html=1;align=center;fontStyle=4;" vertex="1" parent="1">
          <mxGeometry x="350" y="310" width="80" height="30" as="geometry" />
        </mxCell>
        <mxCell id="JCfqLwOLU5Aq-_uj0Y8P-13" style="rounded=0;orthogonalLoop=1;jettySize=auto;html=1;entryX=1;entryY=1;entryDx=0;entryDy=0;endArrow=none;endFill=0;" edge="1" parent="1" source="JCfqLwOLU5Aq-_uj0Y8P-12" target="dTxI5dDR73npywH-p4hO-30">
          <mxGeometry relative="1" as="geometry">
            <mxPoint x="853.4073274528838" y="109.28785512931381" as="sourcePoint" />
            <mxPoint x="640.0000000000001" y="82.62" as="targetPoint" />
          </mxGeometry>
        </mxCell>
        <mxCell id="JCfqLwOLU5Aq-_uj0Y8P-15" style="rounded=0;orthogonalLoop=1;jettySize=auto;html=1;entryX=1;entryY=0.5;entryDx=0;entryDy=0;endArrow=none;endFill=0;" edge="1" parent="1" source="JCfqLwOLU5Aq-_uj0Y8P-14" target="dTxI5dDR73npywH-p4hO-30">
          <mxGeometry relative="1" as="geometry" />
        </mxCell>
        <mxCell id="JCfqLwOLU5Aq-_uj0Y8P-14" value="status" style="ellipse;whiteSpace=wrap;html=1;align=center;" vertex="1" parent="1">
          <mxGeometry x="720" y="40" width="100" height="30" as="geometry" />
        </mxCell>
        <mxCell id="JCfqLwOLU5Aq-_uj0Y8P-12" value="Cagetory order" style="ellipse;whiteSpace=wrap;html=1;align=center;" vertex="1" parent="1">
          <mxGeometry x="680" y="120" width="100" height="30" as="geometry" />
        </mxCell>
        <mxCell id="JCfqLwOLU5Aq-_uj0Y8P-18" style="rounded=0;orthogonalLoop=1;jettySize=auto;html=1;endArrow=none;endFill=0;" edge="1" parent="1" source="JCfqLwOLU5Aq-_uj0Y8P-17">
          <mxGeometry relative="1" as="geometry">
            <mxPoint x="600" y="320" as="targetPoint" />
          </mxGeometry>
        </mxCell>
        <mxCell id="JCfqLwOLU5Aq-_uj0Y8P-17" value="origin" style="ellipse;whiteSpace=wrap;html=1;align=center;" vertex="1" parent="1">
          <mxGeometry x="680" y="350" width="90" height="30" as="geometry" />
        </mxCell>
        <mxCell id="JCfqLwOLU5Aq-_uj0Y8P-20" style="edgeStyle=orthogonalEdgeStyle;rounded=0;orthogonalLoop=1;jettySize=auto;html=1;exitX=0.5;exitY=1;exitDx=0;exitDy=0;" edge="1" parent="1" source="VobUMtlbzpRoxm0NPVZj-3" target="VobUMtlbzpRoxm0NPVZj-3">
          <mxGeometry relative="1" as="geometry" />
        </mxCell>
        <mxCell id="JCfqLwOLU5Aq-_uj0Y8P-23" style="rounded=0;orthogonalLoop=1;jettySize=auto;html=1;entryX=0.5;entryY=0;entryDx=0;entryDy=0;endArrow=none;endFill=0;" edge="1" parent="1" source="JCfqLwOLU5Aq-_uj0Y8P-22" target="Azhsq3GnwWCv2wDgY1An-37">
          <mxGeometry relative="1" as="geometry" />
        </mxCell>
        <mxCell id="JCfqLwOLU5Aq-_uj0Y8P-22" value="status" style="ellipse;whiteSpace=wrap;html=1;align=center;" vertex="1" parent="1">
          <mxGeometry x="150" y="560" width="90" height="30" as="geometry" />
        </mxCell>
        <mxCell id="JCfqLwOLU5Aq-_uj0Y8P-25" style="rounded=0;orthogonalLoop=1;jettySize=auto;html=1;entryX=0.084;entryY=0.065;entryDx=0;entryDy=0;entryPerimeter=0;endArrow=none;endFill=0;" edge="1" parent="1" source="JCfqLwOLU5Aq-_uj0Y8P-24" target="Azhsq3GnwWCv2wDgY1An-38">
          <mxGeometry relative="1" as="geometry" />
        </mxCell>
        <mxCell id="JCfqLwOLU5Aq-_uj0Y8P-24" value="ID(PK)" style="ellipse;whiteSpace=wrap;html=1;align=center;fontStyle=4;" vertex="1" parent="1">
          <mxGeometry x="370" y="480" width="80" height="30" as="geometry" />
        </mxCell>
        <mxCell id="JCfqLwOLU5Aq-_uj0Y8P-27" style="rounded=0;orthogonalLoop=1;jettySize=auto;html=1;exitX=0.5;exitY=0;exitDx=0;exitDy=0;entryX=0.75;entryY=1;entryDx=0;entryDy=0;endArrow=none;endFill=0;" edge="1" parent="1" source="JCfqLwOLU5Aq-_uj0Y8P-26" target="Azhsq3GnwWCv2wDgY1An-38">
          <mxGeometry relative="1" as="geometry" />
        </mxCell>
        <mxCell id="JCfqLwOLU5Aq-_uj0Y8P-26" value="Context" style="ellipse;whiteSpace=wrap;html=1;align=center;" vertex="1" parent="1">
          <mxGeometry x="610" y="650" width="95" height="40" as="geometry" />
        </mxCell>
        <mxCell id="JCfqLwOLU5Aq-_uj0Y8P-30" style="rounded=0;orthogonalLoop=1;jettySize=auto;html=1;entryX=0;entryY=1;entryDx=0;entryDy=0;endArrow=none;endFill=0;" edge="1" parent="1" source="JCfqLwOLU5Aq-_uj0Y8P-28" target="Azhsq3GnwWCv2wDgY1An-38">
          <mxGeometry relative="1" as="geometry" />
        </mxCell>
        <mxCell id="JCfqLwOLU5Aq-_uj0Y8P-28" value="Status" style="ellipse;whiteSpace=wrap;html=1;align=center;" vertex="1" parent="1">
          <mxGeometry x="370" y="530" width="60" height="30" as="geometry" />
        </mxCell>
        <mxCell id="JCfqLwOLU5Aq-_uj0Y8P-31" style="rounded=0;orthogonalLoop=1;jettySize=auto;html=1;exitX=0.5;exitY=0;exitDx=0;exitDy=0;entryX=0.25;entryY=1;entryDx=0;entryDy=0;endArrow=none;endFill=0;" edge="1" parent="1" source="JCfqLwOLU5Aq-_uj0Y8P-29" target="Azhsq3GnwWCv2wDgY1An-38">
          <mxGeometry relative="1" as="geometry" />
        </mxCell>
        <mxCell id="JCfqLwOLU5Aq-_uj0Y8P-29" value="Day create" style="ellipse;whiteSpace=wrap;html=1;align=center;" vertex="1" parent="1">
          <mxGeometry x="390" y="610" width="70" height="40" as="geometry" />
        </mxCell>
      </root>
    </mxGraphModel>
  </diagram>
</mxfile>
